HIERARCHY
ROOT Hips
{
	OFFSET 0.000000 0.000000 0.000000
	CHANNELS 6 Xposition Yposition Zposition Xrotation Yrotation Zrotation
	JOINT LeftUpLeg_virtual
	{
		OFFSET 0.000000 0.000000 0.000000
		CHANNELS 3 Xrotation Yrotation Zrotation
		JOINT LeftUpLeg
		{
			OFFSET 10.205400 -3.823500 0.155100
			CHANNELS 3 Xrotation Yrotation Zrotation
			JOINT LeftLeg
			{
				OFFSET 0.708757 -12.982077 0.567790
				CHANNELS 3 Xrotation Yrotation Zrotation
				JOINT LeftFoot
				{
					OFFSET -0.708756 -10.717838 -2.184338
					CHANNELS 3 Xrotation Yrotation Zrotation
					JOINT LeftToeBase
					{
						OFFSET 0.108149 -7.191104 7.560241
						CHANNELS 3 Xrotation Yrotation Zrotation
						JOINT LeftToe_End
						{
							OFFSET 0.070230 0.081724 4.490308
							CHANNELS 3 Xrotation Yrotation Zrotation
							End Site
							{
								OFFSET 0 0 0
							}
						}
					}
				}
			}
		}
	}
	JOINT RightUpLeg_virtual
	{
		OFFSET 0.000000 0.000000 0.000000
		CHANNELS 3 Xrotation Yrotation Zrotation
		JOINT RightUpLeg
		{
			OFFSET -10.205400 -3.823500 0.005500
			CHANNELS 3 Xrotation Yrotation Zrotation
			JOINT RightLeg
			{
				OFFSET -0.708756 -12.982134 0.610632
				CHANNELS 3 Xrotation Yrotation Zrotation
				JOINT RightFoot
				{
					OFFSET 0.708754 -10.717769 -1.945823
					CHANNELS 3 Xrotation Yrotation Zrotation
					JOINT RightToeBase
					{
						OFFSET -0.108140 -7.191069 7.372968
						CHANNELS 3 Xrotation Yrotation Zrotation
						JOINT RightToe_End
						{
							OFFSET -0.070227 0.081735 4.479403
							CHANNELS 3 Xrotation Yrotation Zrotation
							End Site
							{
								OFFSET 0 0 0
							}
						}
					}
				}
			}
		}
	}
	JOINT Spine_virtual
	{
		OFFSET 0.000000 0.000000 0.000000
		CHANNELS 3 Xrotation Yrotation Zrotation
		JOINT Spine
		{
			OFFSET 0.000000 6.876099 0.125700
			CHANNELS 3 Xrotation Yrotation Zrotation
			JOINT Spine1
			{
				OFFSET 0.000000 5.730043 0.104720
				CHANNELS 3 Xrotation Yrotation Zrotation
				JOINT Spine1_split
				{
					OFFSET 0.000000 5.730043 0.104720
					CHANNELS 3 Xrotation Yrotation Zrotation
					JOINT Spine2
					{
						OFFSET 0.000000 5.730043 0.104720
						CHANNELS 3 Xrotation Yrotation Zrotation
						JOINT Neck_virtual
						{
							OFFSET 0.000000 0.000000 0.000000
							CHANNELS 3 Xrotation Yrotation Zrotation
							JOINT Neck
							{
								OFFSET 0.000000 10.314075 0.188496
								CHANNELS 3 Xrotation Yrotation Zrotation
								JOINT Head
								{
									OFFSET 0.000000 7.643700 -2.377400
									CHANNELS 3 Xrotation Yrotation Zrotation
									JOINT HeadTop_End
									{
										OFFSET 0.000000 43.788605 -13.619600
										CHANNELS 3 Xrotation Yrotation Zrotation
										End Site
										{
											OFFSET 0 0 0
										}
									}
								}
							}
						}
						JOINT LeftShoulder_virtual
						{
							OFFSET 0.000000 0.000000 0.000000
							CHANNELS 3 Xrotation Yrotation Zrotation
							JOINT LeftShoulder
							{
								OFFSET 2.196100 4.412489 0.087492
								CHANNELS 3 Xrotation Yrotation Zrotation
								JOINT LeftShoulder_split
								{
									OFFSET 2.196100 4.412489 0.087492
									CHANNELS 3 Xrotation Yrotation Zrotation
									JOINT LeftArm
									{
										OFFSET 8.771219 -2.981674 -0.026999
										CHANNELS 3 Xrotation Yrotation Zrotation
										JOINT LeftForeArm
										{
											OFFSET 8.512804 0.000000 -0.000000
											CHANNELS 3 Xrotation Yrotation Zrotation
											JOINT LeftHand
											{
												OFFSET 18.484802 0.000000 -0.000000
												CHANNELS 3 Xrotation Yrotation Zrotation
												End Site
												{
													OFFSET 0 0 0
												}
											}
										}
									}
								}
							}
						}
						JOINT RightShoulder_virtual
						{
							OFFSET 0.000000 0.000000 0.000000
							CHANNELS 3 Xrotation Yrotation Zrotation
							JOINT RightShoulder
							{
								OFFSET -2.196100 4.412496 0.070690
								CHANNELS 3 Xrotation Yrotation Zrotation
								JOINT RightShoulder_split
								{
									OFFSET -2.196100 4.412496 0.070690
									CHANNELS 3 Xrotation Yrotation Zrotation
									JOINT RightArm
									{
										OFFSET -8.771282 -2.981682 -0.094208
										CHANNELS 3 Xrotation Yrotation Zrotation
										JOINT RightForeArm
										{
											OFFSET -8.494598 0.000000 0.000000
											CHANNELS 3 Xrotation Yrotation Zrotation
											JOINT RightHand
											{
												OFFSET -18.483803 0.000000 0.000001
												CHANNELS 3 Xrotation Yrotation Zrotation
												End Site
												{
													OFFSET 0 0 0
												}
											}
										}
									}
								}
							}
						}
					}
				}
			}
		}
	}
}
MOTION
Frames: 7
Frame Time: 0.03333333
4.684252 27.704006 30.275597 0.000000 0.000000 0.000000 163.126146 49.665072 -175.943405 -64.575962 -7.182916 22.992555 29.165854 -36.943660 2.827791 11.143770 -1.916355 -26.224952 2.535819 2.043555 -8.061736 0.000000 0.000000 0.000000 165.738980 42.891836 179.609359 -1.257682 -31.010961 -24.797480 32.148249 1.753252 6.396755 -27.614482 -11.829069 24.977213 5.852891 0.295453 -0.368723 0.000000 0.000000 0.000000 164.440520 48.912071 -177.633659 16.729630 4.400041 -1.529177 10.832222 13.653450 -12.210232 0.523025 -5.546814 1.478120 0.000000 0.000000 0.000000 3.404091 13.054318 -10.365004 5.350992 4.304992 5.904796 -4.129259 8.743833 -7.780841 0.000000 0.000000 0.000000 2.523605 13.715195 -11.167228 0.823800 19.350267 -5.104956 -6.165481 -1.703099 -0.050887 21.984072 32.659144 -67.084301 -56.597236 -27.524768 -29.465863 0.000000 0.000000 0.000000 2.233212 12.921964 -11.096248 5.712619 14.501921 1.772880 -7.623498 -2.557985 0.288416 -56.155582 31.488063 69.789616 35.345986 30.739557 -0.093374 0.000000 0.000000 0.000000 
4.572874 27.894194 29.543510 0.000000 0.000000 0.000000 162.118665 54.788393 -174.961361 -61.831490 -8.629454 26.238385 35.443095 -36.154688 3.145805 5.619139 -0.202542 -24.774382 2.990145 1.856446 -8.292357 0.000000 0.000000 0.000000 164.984039 47.678491 -179.468794 -7.884507 -28.241225 -27.170248 33.994415 3.558317 5.751745 -22.492054 -9.439334 24.651946 3.842717 0.691203 -0.211524 0.000000 0.000000 0.000000 163.188751 53.972759 -176.599213 16.516468 4.526681 -0.823035 10.426889 13.051960 -12.295784 0.315022 -5.627608 1.588370 0.000000 0.000000 0.000000 3.151534 12.403832 -10.408943 4.094172 4.739850 5.092931 -2.990598 8.098710 -7.421680 0.000000 0.000000 0.000000 2.183186 13.086490 -11.226083 1.288540 17.911814 -7.837872 -6.298508 -1.165281 0.829595 16.803840 30.053717 -60.220958 -51.450019 -29.494109 -29.168917 0.000000 0.000000 0.000000 1.884141 12.254217 -11.136325 5.585704 13.710425 2.202850 -9.210974 -1.878216 0.498227 -48.684700 28.498196 67.100004 35.348077 38.071392 -0.792473 0.000000 0.000000 0.000000 
4.397529 27.935989 28.782413 0.000000 0.000000 0.000000 160.939911 59.878575 -173.791404 -58.510201 -10.368528 29.244865 42.781522 -34.910647 3.803845 -0.337399 1.623740 -24.087670 3.422867 1.799880 -8.123135 0.000000 0.000000 0.000000 163.975247 52.745371 -178.157042 -14.295595 -24.399640 -29.155158 35.772057 5.542435 4.751781 -17.229441 -7.133162 26.068793 1.062182 0.705698 0.421433 0.000000 0.000000 0.000000 161.910713 59.384977 -175.568838 16.310261 4.459894 -0.471159 9.850590 12.234532 -12.345959 0.210856 -5.413116 1.567317 0.000000 0.000000 0.000000 2.797332 11.652087 -10.453559 2.821405 5.076756 5.136736 -2.224310 7.418316 -6.504230 0.000000 0.000000 0.000000 1.631286 12.342002 -11.225573 1.504145 15.635380 -10.226712 -6.576477 -0.796425 1.496028 10.902654 26.865706 -51.619363 -45.325757 -31.565060 -28.256023 0.000000 0.000000 0.000000 1.220199 11.436274 -11.087608 5.326256 12.285217 2.628532 -10.810327 -1.077208 -0.030582 -41.064849 24.393797 62.890722 35.176403 48.626446 -1.356955 0.000000 0.000000 0.000000 
4.182862 27.869661 27.916700 0.000000 0.000000 0.000000 159.086294 64.683216 -171.746418 -54.745571 -11.898562 31.629165 49.465330 -32.746908 4.280273 -6.520601 3.683089 -23.466816 3.075749 1.911244 -7.440657 0.000000 0.000000 0.000000 162.370126 57.998189 -176.035627 -19.625761 -19.960171 -30.235219 37.535253 7.383388 3.426206 -13.608903 -5.374069 28.093275 -1.240542 0.393484 1.510001 0.000000 0.000000 0.000000 160.269924 64.905976 -174.012046 16.111308 4.091040 -0.460116 9.067263 11.167513 -12.342587 0.317712 -4.799204 1.676414 0.000000 0.000000 0.000000 2.332926 10.746530 -10.493450 1.700383 5.239943 5.738284 -2.386575 6.519256 -5.016283 0.000000 0.000000 0.000000 0.789247 11.447739 -11.155231 1.401939 12.801128 -11.701005 -6.740538 -0.458373 1.972836 4.280296 22.738275 -42.167194 -38.059173 -33.624707 -26.250715 0.000000 0.000000 0.000000 0.257893 10.451089 -10.968502 4.979950 10.344439 2.932363 -11.875357 0.231847 -1.037196 -34.501898 19.086552 57.855192 34.433330 61.658372 -1.403603 0.000000 0.000000 0.000000 
3.981596 27.843615 26.971859 0.000000 0.000000 0.000000 155.381695 69.329753 -167.557340 -50.952948 -12.831551 33.242008 54.377772 -29.775714 4.271872 -12.574802 5.556469 -22.412499 1.954842 2.134880 -6.519914 0.000000 0.000000 0.000000 159.552031 63.497742 -172.542531 -23.362095 -15.658212 -30.283269 39.223277 8.455556 1.981275 -13.035408 -4.848546 28.777639 -0.983634 -0.062716 3.159445 0.000000 0.000000 0.000000 157.489996 70.200595 -170.986027 15.865240 3.402050 -0.691151 8.105426 9.875064 -12.248882 0.443968 -4.374563 1.671605 0.000000 0.000000 0.000000 1.697560 9.625965 -10.490044 0.903880 5.266506 6.498703 -3.599844 5.240008 -3.104438 0.000000 0.000000 0.000000 -0.261181 10.335780 -10.993580 1.043681 9.740254 -12.073883 -6.984918 -0.347185 2.010661 -2.158913 17.232338 -33.112959 -29.064965 -35.069582 -22.363088 0.000000 0.000000 0.000000 -0.901589 9.238209 -10.799732 4.548046 8.019247 3.053121 -12.164572 1.550225 -2.376784 -29.549628 13.207688 52.790730 31.763136 75.650752 0.318186 0.000000 0.000000 0.000000 
3.766468 27.970087 25.873184 0.000000 0.000000 0.000000 148.025472 73.827460 -159.511842 -47.605066 -12.957880 33.940474 57.492072 -26.146844 3.741981 -18.048701 6.828045 -20.773202 0.640414 2.375871 -5.705208 0.000000 0.000000 0.000000 154.713484 68.904424 -167.010679 -25.886419 -12.076949 -29.531750 40.237676 8.193412 0.698698 -15.278158 -5.794455 27.280802 2.352033 -0.404458 5.272722 0.000000 0.000000 0.000000 151.780996 75.205123 -164.741485 15.453684 2.416382 -1.038743 7.011506 8.361088 -11.997548 0.603737 -3.735514 1.326833 0.000000 0.000000 0.000000 0.884928 8.286589 -10.400877 0.611951 5.279045 7.011957 -5.661600 3.596198 -1.052930 0.000000 0.000000 0.000000 -1.393015 8.975326 -10.729533 0.566300 6.577306 -11.437382 -6.867151 -0.502035 1.564329 -7.508985 10.119921 -25.823610 -18.617525 -34.860596 -16.616040 0.000000 0.000000 0.000000 -2.033134 7.787753 -10.567050 4.140354 5.584761 2.994256 -11.895784 1.811721 -3.672792 -25.914429 7.759301 48.225264 -17.557280 88.525672 48.583480 0.000000 0.000000 0.000000 
3.505009 28.266195 24.523994 0.000000 0.000000 0.000000 133.563065 77.922855 -144.236096 -44.996050 -12.205937 33.565254 59.386692 -21.927481 2.863004 -22.985858 7.467039 -18.019847 -0.056178 2.541370 -5.393385 0.000000 0.000000 0.000000 146.121242 74.134634 -157.756565 -27.228759 -9.539580 -28.145997 39.970667 6.765869 -0.172341 -18.585476 -7.388238 24.461086 6.276561 -0.580837 7.420006 0.000000 0.000000 0.000000 139.021903 79.602180 -151.205772 14.950060 1.297021 -1.367774 5.943354 6.753029 -11.554543 0.716335 -3.079881 0.855518 0.000000 0.000000 0.000000 -0.010337 6.806866 -10.137952 0.936364 5.391249 6.983300 -8.096243 1.858780 0.789720 0.000000 0.000000 0.000000 -2.402267 7.395657 -10.326441 0.106391 3.666564 -10.215598 -6.167720 -0.757050 0.978036 -11.747315 1.568881 -21.162610 -8.050936 -32.850655 -10.160432 0.000000 0.000000 0.000000 -2.993298 6.224323 -10.195008 3.792045 3.477138 2.898070 -10.808116 0.845733 -4.543304 -23.209772 3.475932 44.605964 -138.537465 79.641440 168.376116 0.000000 0.000000 0.000000 
